<?xml version="1.0" encoding="iso-8859-1"?>
<!-- Generator: Adobe Illustrator 16.0.0, SVG Export Plug-In . SVG Version: 6.00 Build 0)  -->
<!-- <svg version="1.1" id="Capa_1" xmlns="http://www.w3.org/2000/svg" xmlns:xlink="http://www.w3.org/1999/xlink" x="0px" y="0px"
	 width="351.551px" height="351.551px" viewBox="0 0 351.551 351.551" style="enable-background:new 0 0 351.551 351.551;"
	 xml:space="preserve"> -->
<!DOCTYPE svg PUBLIC "-//W3C//DTD SVG 1.1//EN" "http://www.w3.org/Graphics/SVG/1.1/DTD/svg11.dtd">
<svg version="1.1" id="Capa_1" xmlns="http://www.w3.org/2000/svg" xmlns:xlink="http://www.w3.org/1999/xlink" x="0px" y="0px"
	 width="351.551px" height="351.551px" viewBox="0 0 351.551 351.551" style="enable-background:new 0 0 351.551 351.551;"
	 xml:space="preserve">
<g class="loader-birdie">
	<g>
		<path d="M207.361,159.749l24.392-141.314l36.581-18.318l45.792,15.925l-41.211,127.419l-0.786,0.381
			c-5.812,2.829-27.424,12.334-62.126,15.648L207.361,159.749z M175.824,351.551c-29.496,0-53.494-24.013-53.494-53.521
			c0-5.824,0.946-10.448,2.916-14.147h0.006H226.36l0,0c1.993,3.735,2.966,8.371,2.966,14.147
			C229.333,327.538,205.319,351.551,175.824,351.551z M160.932,170.023l2.459,0.171c6.794,0.48,13.135,0.714,18.878,0.714
			c3.462,0,7.137-0.093,11.316-0.27l2.486-0.105l-19.693,101.286L160.932,170.023z M197.165,160.088l-1.615,0.084
			c-11.062,0.616-22.392,0.505-33.807-0.324l-1.651-0.123L140.648,17.967L176.55,0.21l45.09,18.195L197.165,160.088z
			 M147.343,158.863c-22.356-2.447-45.126-7.581-67.713-15.273l-0.97-0.327L37.425,15.771L77.492,0l53.193,18.753l19.264,140.393
			L147.343,158.863z M84.644,155.53c21.815,6.941,43.532,11.596,64.537,13.799l1.6,0.171l16.048,105.616l-3.936-0.024
			c-1.727-0.012-3.474-0.012-5.164-0.012c-26.526,0-35.08,0.084-37.686,0.402L80.855,154.326L84.644,155.53z M206.353,275.056
			l-20.555,0.055l20.488-104.97l1.591-0.135c27.178-2.288,46.85-8.386,58.56-13.09l4.035-1.625l-38.839,119.982
			C228.324,275.122,220.926,275.056,206.353,275.056z">
			</path>
	</g>
</g>
</svg>
